<?xml version="1.0" encoding="utf-8"?><svg viewBox="0 0 200 60" xmlns="http://www.w3.org/2000/svg" xmlns:xlink="http://www.w3.org/1999/xlink"><style>:root>svg{display:none}:root>svg:target{display:block}</style><svg fill="none" viewBox="0 0 8 4" id="arrow-down" xmlns="http://www.w3.org/2000/svg"><path d="M3.475 3.894L.223.627a.37.37 0 010-.52.363.363 0 01.516 0l2.994 3.008L6.728.108a.364.364 0 01.516 0 .37.37 0 010 .52L3.992 3.893a.367.367 0 01-.517 0z" fill="#7CB238"/></svg><svg fill="none" viewBox="0 0 20 32" id="arrow-left" xmlns="http://www.w3.org/2000/svg"><path d="M1.038 17.015l16.014 14.593a1.35 1.35 0 001.903 0 1.335 1.335 0 000-1.894L3.907 16 18.953 2.286a1.335 1.335 0 000-1.894 1.35 1.35 0 00-1.903 0L1.037 14.985c-.28.279-.4.648-.381 1.014a1.33 1.33 0 00.382 1.016z" fill="#505050"/></svg><svg fill="none" viewBox="0 0 20 32" id="arrow-right" xmlns="http://www.w3.org/2000/svg"><path d="M18.964 14.985L2.95.392a1.35 1.35 0 00-1.904 0 1.335 1.335 0 000 1.894L16.095 16 1.05 29.714a1.335 1.335 0 000 1.894 1.35 1.35 0 001.903 0l16.013-14.593c.28-.279.4-.648.382-1.014a1.33 1.33 0 00-.383-1.016z" fill="#505050"/></svg><svg fill="none" viewBox="0 0 32 23" id="icon-address" xmlns="http://www.w3.org/2000/svg"><path d="M31.917 14.34l-1.62-2.479a3.866 3.866 0 00-3.25-1.75h-4.19v-2.41a2.671 2.671 0 00-2.669-2.668h-7.841A4.986 4.986 0 007.459.99 4.984 4.984 0 002.48 5.97c0 1.726.884 3.249 2.222 4.142H.508a.508.508 0 100 1.016h5.08v1.016H3.554a.508.508 0 000 1.016h2.032v1.015H.508a.508.508 0 100 1.016h5.08v2.25a2.548 2.548 0 00-1.525 2.328v.502c0 .28.228.508.509.508h4.505a2.811 2.811 0 002.732 2.173c1.33 0 2.445-.93 2.733-2.173h9.773a2.812 2.812 0 002.733 2.173c1.329 0 2.444-.93 2.733-2.173h1.711c.28 0 .508-.227.508-.508v-5.654a.508.508 0 00-.083-.278zM3.497 5.97a3.968 3.968 0 013.962-3.963 3.967 3.967 0 013.963 3.963 3.967 3.967 0 01-3.963 3.963A3.968 3.968 0 013.496 5.97zm3.106 9.221H7.62a.508.508 0 100-1.016H6.603V13.16h3.556a.508.508 0 100-1.016H6.603v-1.016h6.603a.508.508 0 100-1.016h-2.99a4.976 4.976 0 002.218-4.064h7.755c.91 0 1.652.742 1.652 1.653v9.522H6.603v-2.031zm15.238 4.572H14.59a2.797 2.797 0 00-.722-1.524h7.974v1.524zM6.61 18.239h3.142c-.382.413-.642.94-.721 1.524H5.079a1.532 1.532 0 011.53-1.524zm5.2 3.697a1.794 1.794 0 01-1.793-1.792c0-.988.805-1.792 1.792-1.792.989 0 1.793.804 1.793 1.792s-.804 1.792-1.793 1.792zm15.238 0a1.794 1.794 0 01-1.792-1.792c0-.988.804-1.792 1.792-1.792s1.792.804 1.792 1.792-.804 1.792-1.792 1.792zm3.936-2.173h-1.157a2.81 2.81 0 00-2.78-2.427 2.81 2.81 0 00-2.779 2.427h-1.41v-8.635h4.188c.976 0 1.874.482 2.401 1.288l1.537 2.352v4.995z" fill="#fff"/><path d="M27.878 20.144a.83.83 0 11-1.661 0 .83.83 0 011.662 0zM12.64 20.144a.83.83 0 11-1.661 0 .83.83 0 011.661 0zM8.127 5.97V3.748a.508.508 0 10-1.016 0v2.056L6.074 7.226a.507.507 0 10.821.598L8.03 6.27a.508.508 0 00.097-.3zM26.876 11.636h-.971a.508.508 0 00-.508.508v3.555c0 .281.227.508.508.508h3.418a.874.874 0 00.764-.44.872.872 0 00.003-.88l-1.187-2.075a2.34 2.34 0 00-2.027-1.176zm-.463 3.556v-2.54h.463c.473 0 .911.254 1.145.664l1.072 1.875h-2.68z" fill="#fff"/></svg><svg fill="none" viewBox="0 0 32 31" id="icon-cart" xmlns="http://www.w3.org/2000/svg"><path d="M31.798 4.039a.923.923 0 00-.721-.347H6.509L5.822.715A.923.923 0 004.923 0h-4a.923.923 0 000 1.846H4.19l4.663 20.208c.097.419.47.715.9.715h18.494a.923.923 0 100-1.846h-17.76l-.71-3.077h18.532c.431 0 .806-.3.9-.72l2.77-12.308a.923.923 0 00-.18-.78zM27.569 16H9.35L6.937 5.538h22.987L27.57 16zM13.538 24a3.388 3.388 0 00-3.384 3.385 3.388 3.388 0 003.384 3.384 3.388 3.388 0 003.385-3.384A3.388 3.388 0 0013.538 24zm0 4.923A1.54 1.54 0 0112 27.385c0-.849.69-1.539 1.538-1.539.849 0 1.539.69 1.539 1.539a1.54 1.54 0 01-1.539 1.538zM24.615 24a3.388 3.388 0 00-3.384 3.385 3.388 3.388 0 003.384 3.384A3.388 3.388 0 0028 27.385 3.388 3.388 0 0024.615 24zm0 4.923a1.54 1.54 0 01-1.538-1.538c0-.849.69-1.539 1.538-1.539.849 0 1.539.69 1.539 1.539a1.54 1.54 0 01-1.539 1.538z" fill="#fff"/></svg><svg fill="none" viewBox="0 0 32 29" id="icon-heart" xmlns="http://www.w3.org/2000/svg"><path d="M29.665 2.777C28.087.987 25.897 0 23.5 0c-3.372 0-5.506 2.014-6.703 3.703-.311.438-.575.878-.797 1.292a12.245 12.245 0 00-.797-1.292C14.006 2.013 11.872 0 8.5 0 6.103 0 3.913.986 2.335 2.777.829 4.486 0 6.774 0 9.22c0 2.662 1.04 5.139 3.272 7.793 1.994 2.373 4.864 4.818 8.187 7.65a385.452 385.452 0 013.883 3.34l.04.035a.935.935 0 001.236 0l.04-.035c1.364-1.193 2.644-2.284 3.883-3.34 3.323-2.832 6.193-5.277 8.187-7.65C30.96 14.36 32 11.883 32 9.22c0-2.446-.83-4.734-2.335-6.443zm-10.34 20.46c-1.068.909-2.167 1.845-3.325 2.852-1.158-1.007-2.257-1.943-3.325-2.853-6.503-5.542-10.8-9.203-10.8-14.016 0-1.99.663-3.837 1.866-5.203A6.258 6.258 0 018.5 1.875c2.57 0 4.232 1.584 5.174 2.912a11.113 11.113 0 011.435 2.854.937.937 0 001.782 0c.15-.461.591-1.662 1.436-2.854.94-1.328 2.602-2.912 5.173-2.912 1.851 0 3.541.76 4.759 2.142 1.203 1.366 1.866 3.213 1.866 5.203 0 4.813-4.297 8.474-10.8 14.016z" fill="#fff"/></svg><svg fill="none" viewBox="0 0 21 20" id="icon-search" xmlns="http://www.w3.org/2000/svg"><path d="M9.02 16.472C4.477 16.472.78 12.777.78 8.236S4.476 0 9.02 0c4.545 0 8.242 3.695 8.242 8.236s-3.697 8.236-8.242 8.236zm0-14.91c-3.682 0-6.679 2.994-6.679 6.674s2.997 6.675 6.68 6.675 6.68-2.995 6.68-6.675c0-3.68-2.997-6.675-6.68-6.675zm11.53 18.21a.78.78 0 000-1.105l-3.496-3.493a.782.782 0 00-1.105 1.104l3.496 3.493a.779.779 0 001.105 0z" fill="#31352B"/></svg><svg fill="none" viewBox="0 0 23 23" id="icon-tel" xmlns="http://www.w3.org/2000/svg"><path d="M21.463 16.589l-3.194-3.196a2.276 2.276 0 00-1.617-.662c-.64 0-1.242.252-1.698.708l-1.244 1.243c-.966-.537-2.25-1.275-3.583-2.609-1.332-1.332-2.07-2.612-2.61-3.583l1.244-1.244c.926-.927.945-2.415.043-3.316L5.61.737A2.266 2.266 0 003.993.072 2.39 2.39 0 002.324.75C2.05.97.674 2.186.161 4.69c-.718 3.507.932 6.882 5.695 11.648 5.322 5.32 9.865 5.733 11.13 5.733.264 0 .423-.017.465-.021 2.482-.291 3.37-1.393 4.02-2.198.84-1.043.837-2.416-.008-3.264zm-1.06 2.403c-.61.756-1.186 1.47-3.111 1.697-.001 0-.107.011-.306.011-1.132 0-5.211-.384-10.16-5.331C2.433 10.974.891 7.96 1.504 4.966c.448-2.185 1.635-3.114 1.682-3.15l.04-.03.036-.036a1.03 1.03 0 01.73-.307c.25 0 .479.093.648.263L7.834 4.9c.368.367.348.985-.043 1.377L6.384 7.683l-.023.024c-.367.404-.324.95-.122 1.306.583 1.052 1.382 2.493 2.918 4.03 1.532 1.531 2.97 2.33 4.02 2.911.104.06.321.158.593.158.32 0 .615-.136.832-.383l1.321-1.32c.197-.198.456-.306.728-.306.25 0 .48.093.649.261l3.192 3.193c.405.407.238 1.03-.09 1.435zM13.388 3.432c1.178.135 2.566.849 3.534 1.818.978.977 1.693 2.379 1.822 3.57a.686.686 0 101.364-.148c-.164-1.506-1.013-3.189-2.216-4.392-1.192-1.192-2.858-2.04-4.347-2.21a.686.686 0 10-.157 1.362zM12.748 6.304c.637.073 1.519.546 2.096 1.123.583.583 1.056 1.473 1.126 2.117a.686.686 0 101.363-.147c-.119-1.1-.849-2.269-1.52-2.94-.664-.664-1.821-1.39-2.909-1.516a.685.685 0 10-.156 1.363z" fill="#fff"/></svg><svg fill="none" viewBox="0 0 25 32" id="icon-user" xmlns="http://www.w3.org/2000/svg"><path d="M22.678 19.943a12.5 12.5 0 00-4.085-3.779 9.242 9.242 0 003.093-6.902C21.686 4.155 17.531 0 12.424 0S3.162 4.155 3.162 9.262a9.242 9.242 0 003.092 6.902 12.5 12.5 0 00-4.085 3.779A12.322 12.322 0 000 26.936V32h24.848v-5.064c0-2.505-.75-4.923-2.17-6.993zM5.101 9.263c0-4.039 3.285-7.324 7.323-7.324s7.323 3.285 7.323 7.323-3.285 7.323-7.323 7.323S5.1 13.3 5.1 9.262zM1.939 30.06v-3.125c0-4.109 2.38-7.794 6.101-9.516a9.205 9.205 0 004.384 1.104c1.585 0 3.078-.4 4.383-1.104 3.721 1.722 6.101 5.407 6.101 9.516v3.125H1.94z" fill="#fff"/></svg><svg fill="none" viewBox="0 0 200 60" id="logo" xmlns="http://www.w3.org/2000/svg"><path d="M82.26 14.192c2.185.056 3.92.439 5.209 1.148 1.306.69 2.24 1.587 2.8 2.688.578 1.101.868 2.305.868 3.612 0 .84-.15 1.699-.448 2.576-.28.877-.765 1.69-1.456 2.436-.672.728-1.578 1.325-2.716 1.792-1.139.467-2.557.719-4.256.756v3.08h-3.808V29.2c-1.718-.037-3.155-.29-4.312-.756-1.139-.467-2.044-1.073-2.716-1.82-.672-.747-1.148-1.55-1.428-2.408a8.445 8.445 0 01-.42-2.576c0-1.307.28-2.51.84-3.612.579-1.101 1.512-1.997 2.8-2.688 1.306-.71 3.052-1.092 5.236-1.148v-2.464h3.808v2.464zm-3.807 3.304c-1.81.075-3.08.495-3.808 1.26-.728.747-1.092 1.699-1.092 2.856 0 1.25.392 2.268 1.176 3.052.784.765 2.025 1.185 3.724 1.26v-8.428zm3.808 8.428c1.717-.075 2.959-.495 3.724-1.26.784-.784 1.176-1.801 1.176-3.052 0-1.157-.364-2.11-1.092-2.856-.71-.765-1.979-1.185-3.808-1.26v8.428zm19.05-13.916c2.576 0 4.452.56 5.628 1.68 1.194 1.101 1.792 2.623 1.792 4.564 0 1.157-.243 2.25-.728 3.276-.486 1.008-1.298 1.82-2.436 2.436-1.12.616-2.651.924-4.592.924h-1.82V32h-4.228V12.008h6.384zm-.224 3.472h-1.932v5.936h1.4c1.194 0 2.137-.233 2.828-.7.709-.485 1.064-1.26 1.064-2.324 0-1.941-1.12-2.912-3.36-2.912zM124.017 32h-11.508V12.008h11.508v3.472h-7.28v4.396h6.776v3.472h-6.776V28.5h7.28V32zm29.304 0h-25.144V12.008h4.228v16.464h6.216V12.008h4.256v16.464h6.216V12.008h4.228V32zm23.187-10.024c0 2.072-.345 3.883-1.036 5.432-.672 1.53-1.708 2.725-3.108 3.584-1.4.859-3.192 1.288-5.376 1.288-2.165 0-3.957-.43-5.376-1.288-1.4-.859-2.445-2.063-3.136-3.612-.672-1.55-1.008-3.36-1.008-5.432 0-2.072.336-3.873 1.008-5.404.691-1.53 1.736-2.716 3.136-3.556 1.419-.859 3.22-1.288 5.404-1.288 2.166 0 3.948.43 5.348 1.288 1.4.84 2.436 2.035 3.108 3.584.691 1.53 1.036 3.332 1.036 5.404zm-14.588 0c0 2.09.402 3.743 1.204 4.956.803 1.195 2.091 1.792 3.864 1.792 1.811 0 3.108-.597 3.892-1.792.784-1.213 1.176-2.865 1.176-4.956 0-2.11-.392-3.761-1.176-4.956-.784-1.195-2.072-1.792-3.864-1.792-1.792 0-3.089.597-3.892 1.792-.802 1.195-1.204 2.847-1.204 4.956zM196.945 32h-4.816l-7.252-10.136V32h-4.228V12.008h4.228v9.688l7.168-9.688h4.508l-7.28 9.604L196.945 32zM87.116 45.704c0 .888-.148 1.664-.444 2.328a3.326 3.326 0 01-1.332 1.536c-.6.368-1.368.552-2.304.552-.928 0-1.696-.184-2.304-.552a3.386 3.386 0 01-1.344-1.548c-.288-.664-.432-1.44-.432-2.328 0-.888.144-1.66.432-2.316a3.327 3.327 0 011.344-1.524c.608-.368 1.38-.552 2.316-.552.928 0 1.692.184 2.292.552.6.36 1.044.872 1.332 1.536.296.656.444 1.428.444 2.316zm-6.252 0c0 .896.172 1.604.516 2.124.344.512.896.768 1.656.768.776 0 1.332-.256 1.668-.768.336-.52.504-1.228.504-2.124 0-.904-.168-1.612-.504-2.124-.336-.512-.888-.768-1.656-.768-.768 0-1.324.256-1.668.768-.344.512-.516 1.22-.516 2.124zM95.911 50H94.1v-3.696h-3.396V50h-1.812v-8.568h1.812v3.36H94.1v-3.36h1.812V50zm8.936 0h-1.812v-7.056h-2.1l-.156 1.2c-.048.432-.104.872-.168 1.32-.056.44-.116.86-.18 1.26-.064.392-.128.74-.192 1.044-.104.496-.244.92-.42 1.272-.168.352-.404.62-.708.804-.296.184-.684.276-1.164.276-.312 0-.6-.044-.864-.132V48.5c.104.032.204.06.3.084.104.024.216.036.336.036.232 0 .408-.12.528-.36.128-.248.256-.708.384-1.38.048-.256.116-.656.204-1.2.088-.544.184-1.18.288-1.908.112-.736.216-1.516.312-2.34h5.412V50zm7.405 0l-.624-2.04h-3.12l-.624 2.04h-1.956l3.024-8.604h2.22L114.208 50h-1.956zm-1.68-5.556c-.04-.136-.092-.308-.156-.516-.064-.208-.128-.42-.192-.636a13.834 13.834 0 01-.156-.564c-.04.16-.096.36-.168.6-.064.232-.128.456-.192.672-.056.208-.1.356-.132.444l-.612 1.992h2.232l-.624-1.992zm11.622-5.832a2.6 2.6 0 01-.348 1.104c-.192.312-.492.556-.9.732-.408.176-.956.264-1.644.264-.704 0-1.256-.084-1.656-.252-.392-.176-.672-.42-.84-.732-.168-.312-.268-.684-.3-1.116h1.596c.04.44.152.732.336.876.184.144.484.216.9.216.344 0 .624-.076.84-.228.224-.16.356-.448.396-.864h1.62zm-6.9 2.82h1.632v4.14c0 .2-.004.424-.012.672l-.024.732c-.008.232-.016.436-.024.612a5.388 5.388 0 01-.024.348h.036l3.96-6.504h2.172V50h-1.62v-4.116c0-.216.004-.452.012-.708l.024-.756c.016-.24.028-.448.036-.624.016-.184.028-.304.036-.36h-.048L117.478 50h-2.184v-8.568zM132.192 50h-1.812v-3.696h-3.396V50h-1.812v-8.568h1.812v3.36h3.396v-3.36h1.812V50zm1.664-2.574a1.735 1.735 0 01-.054-.336 4.712 4.712 0 01-.012-.306c0-.084.004-.186.012-.306s.026-.234.054-.342h3.186c.028.108.046.222.054.342.008.12.012.222.012.306 0 .084-.004.186-.012.306s-.026.232-.054.336h-3.186zM142.332 50l-2.064-6.72h-.048l.036.72c.016.32.032.664.048 1.032.016.36.024.688.024.984V50h-1.62v-8.568h2.472l2.028 6.552h.036l2.148-6.552h2.472V50h-1.692v-4.056c0-.272.004-.584.012-.936.016-.352.028-.684.036-.996l.036-.72h-.048L144 50h-1.668zm12.94 0l-.624-2.04h-3.12l-.624 2.04h-1.956l3.024-8.604h2.22L157.228 50h-1.956zm-1.68-5.556c-.04-.136-.092-.308-.156-.516-.064-.208-.128-.42-.192-.636a13.834 13.834 0 01-.156-.564c-.04.16-.096.36-.168.6-.064.232-.128.456-.192.672-.056.208-.1.356-.132.444l-.612 1.992h2.232l-.624-1.992zm7.457-3.012c1.104 0 1.908.24 2.412.72.512.472.768 1.124.768 1.956 0 .496-.104.964-.312 1.404-.208.432-.556.78-1.044 1.044-.48.264-1.136.396-1.968.396h-.78V50h-1.812v-8.568h2.736zm-.096 1.488h-.828v2.544h.6c.512 0 .916-.1 1.212-.3.304-.208.456-.54.456-.996 0-.832-.48-1.248-1.44-1.248zM172.832 50h-2.064l-3.108-4.344V50h-1.812v-8.568h1.812v4.152l3.072-4.152h1.932l-3.12 4.116L172.832 50zm6.011 0h-4.932v-8.568h4.932v1.488h-3.12v1.884h2.904v1.488h-2.904V48.5h3.12V50zm5.083 0h-1.812v-7.056h-2.328v-1.512h6.468v1.512h-2.328V50z" fill="#fff"/><path opacity=".2" d="M54.648 59.067c0-.512-11.474-.933-25.611-.933-14.138 0-25.612.421-25.612.933S14.9 60 29.037 60c14.17 0 25.611-.421 25.611-.933z" fill="#5D5D5D"/><path d="M29.398 11.81c11.146 0 20.187 8.277 20.187 18.481v18.482H29.398c-11.145 0-20.186-8.278-20.186-18.482V11.81h20.186z" fill="#fff"/><path opacity=".3" d="M46.692 20.78c-1.677 1.776-2.696 4.093-2.696 6.622 0 3.762 2.236 7.043 5.556 8.819v-5.93c0-3.461-1.019-6.712-2.86-9.511z" fill="#fff"/><path d="M38.769 13.947c-3.157 1.655-5.26 4.756-5.26 8.338 0 5.297 4.7 9.602 10.487 9.602 2.038 0 3.945-.542 5.556-1.475v-.12c0-7.104-4.372-13.275-10.783-16.345z" fill="#fff"/><path opacity=".5" d="M22.922 15.39c-5.195 0-9.962 1.656-13.71 4.456V30.32c0 10.205 9.04 18.482 20.186 18.482h9.666c3.518-3.552 5.655-8.247 5.655-13.425 0-11.046-9.764-19.986-21.797-19.986z" fill="#F8F6EC"/><path d="M49.552 48.743l-20.154.03c-11.145 0-20.186-8.278-20.186-18.482V11.84l40.34 36.903z" fill="#fff"/><path opacity=".3" d="M12.335 18.432c0 14.026 12.428 25.374 27.716 25.374 1.315 0 2.597-.09 3.846-.24L12.598 14.94a24.621 24.621 0 00-.263 3.492z" fill="#fff"/><path opacity=".3" d="M49.552 48.773L9.376 11.99c4.734 6.472 10.192 13.034 15.748 18.452 4.34 4.214 16.866 13.635 24.428 18.33z" fill="#fff"/><path opacity=".3" d="M22.395 23.88L9.212 11.84V30.32c0 8.157 5.786 15.08 13.775 17.519-3.419-3.161-5.523-7.495-5.523-12.251 0-4.515 1.874-8.609 4.931-11.71z" fill="#fff"/><path opacity=".3" d="M40.347 40.345c-3.42 3.822-8.614 6.29-14.434 6.29-3.88 0-7.496-1.083-10.488-2.95 3.617 3.161 8.516 5.118 13.94 5.118h20.187v-.03l-9.205-8.428z" fill="#fff"/><path opacity=".3" d="M10.395 22.887c0-2.98.56-5.87 1.611-8.519L9.212 11.84V30.32c0 10.204 9.04 18.482 20.186 18.482h20.187v-.03l-2.005-1.836a29.736 29.736 0 01-9.337 1.474c-15.387-.03-27.848-11.438-27.848-25.524z" fill="#F8F6EC"/><path d="M49.224 52.355c1.413-.362 2.893.421 3.254 1.715.395 1.295-.46 2.65-1.907 2.98-1.413.361-2.893-.421-3.254-1.715-.362-1.295.493-2.62 1.907-2.98zm-.526-1.836c-2.532.632-4.044 2.98-3.354 5.297.657 2.318 3.255 3.702 5.786 3.07 2.532-.632 4.044-3.01 3.354-5.297-.658-2.318-3.255-3.672-5.787-3.07z" fill="#fff"/><path opacity=".5" d="M52.05 56.177a2.821 2.821 0 01-1.446.903c-1.414.361-2.893-.422-3.255-1.716a2.298 2.298 0 01.888-2.498c-.395-.512-.724-1.084-1.052-1.656-1.578 1.024-2.367 2.86-1.841 4.666.657 2.318 3.254 3.702 5.786 3.07 1.184-.3 2.137-.963 2.762-1.836a34.044 34.044 0 01-1.841-.933z" fill="#fff"/><path d="M10.165 52.355c1.413-.331 2.893.451 3.255 1.745.361 1.295-.494 2.65-1.907 2.98-1.414.331-2.894-.451-3.255-1.745-.362-1.295.493-2.65 1.907-2.98zm-.526-1.836c-2.532.602-4.044 2.98-3.387 5.297.658 2.318 3.255 3.702 5.787 3.1 2.531-.602 4.044-2.98 3.419-5.297-.69-2.318-3.288-3.703-5.82-3.1z" fill="#fff"/><path opacity=".5" d="M12.96 56.207a2.596 2.596 0 01-1.447.873c-1.414.331-2.893-.452-3.255-1.746-.263-.963.132-1.926.888-2.498-.395-.512-.723-1.084-1.02-1.656-1.577.994-2.4 2.83-1.873 4.636.657 2.317 3.254 3.702 5.786 3.1 1.184-.27 2.17-.963 2.762-1.836-.658-.24-1.25-.542-1.841-.873z" fill="#fff"/><path d="M10.494 10.546c-.625 0-1.15-.482-1.15-1.054 0-2.468-.757-4.334-2.204-5.568-2.334-2.017-5.852-1.806-5.885-1.806-.624.06-1.183-.392-1.25-.964C-.06.582.434.071 1.059.011c.197 0 4.537-.301 7.628 2.317 1.972 1.656 2.959 4.064 2.959 7.134 0 .602-.494 1.084-1.151 1.084z" fill="#fff"/></svg><svg fill="none" viewBox="0 0 26 17" id="nav_icon" xmlns="http://www.w3.org/2000/svg"><path fill="#63A60E" d="M.917 0h24.896v1H.917zM.917 8h19.917v1H.917zM.917 16h24.896v1H.917z"/></svg></svg>